<?xml version="1.0" standalone="no"?>
<!DOCTYPE svg PUBLIC "-//W3C//DTD SVG 1.1//EN" "http://www.w3.org/Graphics/SVG/1.1/DTD/svg11.dtd" >
<svg xmlns="http://www.w3.org/2000/svg">
<metadata>Generated by IcoMoon</metadata>
<defs>
<font id="envyHer" horiz-adv-x="1024">
<font-face units-per-em="1024" ascent="960" descent="-64" />
<missing-glyph horiz-adv-x="1024" />
<glyph unicode="&#x20;" horiz-adv-x="512" d="" />
<glyph unicode="&#xe900;" glyph-name="call-us" horiz-adv-x="961" d="M792.274 360.504c-17.212 19.057-41.829 31.141-69.281 31.685-27.869-0.676-52.727-12.613-70.382-31.392l-64.862-64.383c-5.278 2.878-10.801 5.52-15.843 8.163-8.135 3.735-14.829 7.341-21.278 11.302-64.55 42.175-120.336 92.927-167.040 151.256-22.209 26.662-40.716 55.306-55.474 86.083 15.745 17.58 31.347 33.658 46.711 49.025 5.52 5.52 11.282 11.524 17.044 17.285 19.897 17.209 32.407 42.493 32.407 70.697s-12.511 53.488-32.29 70.593l-56.053 55.791c-6.48 6.48-12.966 12.966-19.204 19.445-12.241 12.724-25.207 25.683-38.648 37.931-17.356 18.155-41.633 29.575-68.577 30.008-27.476-0.454-52.126-11.847-69.916-29.99-0.098-0.162-0.256-0.257-0.431-0.257-0.025 0-0.042 0.002-0.065 0.005l-69.853-70.094c-24.993-24.494-41.465-57.598-44.609-94.504-0.273-5.391-0.409-11.063-0.409-16.763 0-48.792 9.839-95.283 27.649-137.603 38.46-97.955 91.569-184.307 157.235-259.38 86.493-103.14 193.611-187.616 315.117-247.309 58.165-29.866 119.407-48.706 184.258-55.388 6.498-0.424 11.059-0.659 15.137-0.659 1.107-0.028 2.406-0.043 3.709-0.043 45.447 0 86.335 19.495 114.768 50.579 0.347 0.598 0.826 0.836 1.065 1.319 11.49 13.229 23.17 25.287 35.472 36.693 9.18 8.676 18.302 17.315 26.942 26.679 18.7 17.861 30.526 42.775 31.207 70.452-0.635 27.875-12.682 52.694-31.615 70.156zM865.733 145.415v0c-7.922-8.639-16.085-16.326-24.965-24.965-13.931-12.921-26.864-26.238-39.076-40.193-18.745-20.743-44.966-33.332-74.127-33.332-1.299 0-2.593 0.028-3.885 0.077-2.935-0.006-6.057-0.006-9.176 0.235-59.519 6.275-113.833 23.227-162.82 48.95-117.274 57.626-218.193 137.134-299.584 233.654-61.906 71.064-111.826 152.217-147.028 240.823-16.728 39.542-25.303 79.029-25.303 120.52 0 4.516 0.1 9.006 0.305 13.474 1.864 23.341 12.443 44.535 28.519 60.073l69.882 69.639c7.951 8.342 18.871 13.784 31.057 14.634 12.089-0.742 22.64-6.127 30.124-14.358 0.204-0.269 0.455-0.439 0.744-0.514 12.492-11.767 24.492-23.767 36.975-36.733 6.241-6.48 12.966-12.966 19.445-19.687l56.173-55.934c9.961-7.126 16.381-18.66 16.381-31.687s-6.414-24.561-16.264-31.606c-6.121-5.842-11.883-11.841-17.879-17.602-17.285-17.527-33.604-33.846-51.613-49.689-0.241-0.483-0.717-0.717-0.959-1.2-8.394-7.593-13.644-18.52-13.644-30.678 0-5.644 1.131-11.028 3.18-15.928 0.142-0.205 0.142-0.929 0.376-1.405 18.17-41.205 40.45-76.719 67.060-108.482l-0.327 0.458c51.425-64.43 111.587-119.097 179.291-163.146 10.003-6.305 18.344-10.871 26.993-14.892 8.557-4.408 15.52-7.768 21.517-11.605 1.009-0.427 1.879-0.907 2.689-1.47 5.811-3.047 12.739-4.894 20.083-5.009 12.41 0.233 23.482 5.632 31.209 14.126l70.366 69.891c7.732 8.653 18.603 14.369 30.805 15.355 12.058-0.688 22.522-6.298 29.636-14.806l0.536-0.542 113.303-112.585c9.667-7.395 15.845-18.943 15.845-31.928s-6.176-24.533-15.75-31.856z" />
<glyph unicode="&#xe901;" glyph-name="free-shipping" horiz-adv-x="1521" d="M1266.495 698.369h-189.273v125.322c-0.234 34.657-28.383 62.662-63.073 62.662-0.128 0-0.254 0-0.382-0.001h-697.246c-0.054 0-0.117 0-0.182 0-34.674 0-62.805-28.014-62.995-62.644l-222.021-0.018c-17.304 0-31.33-14.027-31.33-31.33s14.027-31.33 31.33-31.33h222.021l-0.258-125.065h-158.329c-17.304 0-31.33-14.027-31.33-31.33s14.027-31.33 31.33-31.33h158.329v-125.322h-94.894c-17.304 0-31.33-14.027-31.33-31.33s14.027-31.33 31.33-31.33h94.894v-125.065h-31.717c-17.304 0-31.33-14.027-31.33-31.33s14.027-31.33 31.33-31.33h31.717c0.131-34.636 28.239-62.664 62.893-62.664 0.191 0 0.381 0.001 0.571 0.003h66.501c16.047-72.147 79.499-125.287 155.364-125.287s139.317 53.14 155.165 124.228l418.456 1.058c16.047-72.147 79.499-125.287 155.364-125.287s139.317 53.14 155.165 124.228l46.871 1.058c0.942-0.066 2.040-0.104 3.148-0.104 26.404 0 47.808 21.405 47.808 47.808 0 1.361-0.057 2.71-0.169 4.043 0.012 36.959 0.785 261.3 0.785 261.3zM538.544 72.273c-51.52 0.51-93.090 42.395-93.090 93.988 0 51.91 42.082 93.992 93.992 93.992s93.992-42.082 93.992-93.992c0-0.044 0-0.087 0-0.131-0.35-51.907-42.516-93.857-94.48-93.857-0.146 0-0.292 0-0.437 0.001zM693.778 197.595c-16.141 72.055-79.558 125.095-155.364 125.095s-139.223-53.041-155.164-124.035l-66.729-1.062v626.095h697.266v-626.095h-320.010zM1267.527 72.273c-51.52 0.51-93.090 42.395-93.090 93.988 0 51.91 42.082 93.992 93.992 93.992s93.992-42.082 93.992-93.992c0-0.044 0-0.087 0-0.131-0.35-51.907-42.516-93.857-94.48-93.857-0.146 0-0.292 0-0.437 0.001zM1457.057 197.595h-34.295c-16.141 72.055-79.558 125.095-155.364 125.095s-139.223-53.041-155.164-124.035l-35.012-1.062v438.37h1.805l161.423-0.258 217.122-213.77z" />
<glyph unicode="&#xe902;" glyph-name="gift-cards" horiz-adv-x="1170" d="M1103.232 650.601h-609.712l173.020 46.057c10.555 2.94 18.171 12.467 18.171 23.773 0 6.798-2.754 12.953-7.206 17.41l-215.665 214.934c-4.554 4.407-10.767 7.123-17.615 7.123-2.226 0-4.385-0.287-6.442-0.826-8.336-2.18-14.906-8.751-17.089-17.096l-78.261-290.889-78.224 290.722c-2.403 8.489-9.011 15.016-17.373 17.263-2.053 0.539-4.213 0.826-6.438 0.826-6.848 0-13.062-2.716-17.622-7.13l-215.658-214.928c-4.407-4.554-7.123-10.767-7.123-17.615 0-2.226 0.287-4.385 0.826-6.442 2.363-8.312 8.972-14.84 17.334-17.086l172.948-46.097h-20.958c-36.78-0.027-66.605-29.767-66.771-66.512v-581.459c0.083-36.76 29.902-66.528 66.674-66.528 0.034 0 0.069 0 0.103 0h933.083c0.029 0 0.063 0 0.098 0 36.771 0 66.59 29.768 66.673 66.52v581.451c-0.166 36.76-29.991 66.5-66.768 66.527zM891.465 289.453h229.068v-228.337zM1120.534 338.678h-278.537l-99.182 98.938h377.719v-98.938zM1120.534 584.073v-97.233h-427.188l-114.778 114.534h524.664c0.029 0 0.063 0 0.098 0 9.502 0 17.205-7.703 17.205-17.205 0-0.034 0-0.069 0-0.103zM457.211 887.955l155.231-154.743-212.010-56.78zM227.654 887.955l56.78-211.279-212.254 56.536zM152.842 437.616h131.349l99.182-98.938h-230.53v98.938zM152.842 486.842v81.636l81.88-81.636h-81.88zM152.842 2.63v286.823h279.999l305.343-304.125h-568.040c-9.539 0.041-17.261 7.763-17.302 17.298zM1103.232-14.672h-295.352l-618.241 616.048h318.99l609.712-607.518c-3.040-5.139-8.553-8.531-14.858-8.531-0.088 0-0.176 0.001-0.264 0.002z" />
<glyph unicode="&#xe903;" glyph-name="search" horiz-adv-x="956" d="M598.342 278.352c27.197 28.163 72.076 28.946 100.239 1.75l222.551-214.915c28.163-27.197 28.946-72.076 1.75-100.239s-72.076-28.946-100.239-1.75l-222.551 214.915c-28.163 27.197-28.946 72.076-1.75 100.239zM431.265 109.313c-234.911 0-425.344 190.433-425.344 425.344s190.433 425.344 425.344 425.344c234.911 0 425.344-190.433 425.344-425.344s-190.433-425.344-425.344-425.344zM431.265 251.094c156.608 0 283.563 126.955 283.563 283.563s-126.955 283.563-283.563 283.563c-156.608 0-283.563-126.955-283.563-283.563s126.955-283.563 283.563-283.563z" />
<glyph unicode="&#xe904;" glyph-name="lock" horiz-adv-x="768" d="M128 704v-128h512v128c0 141.385-114.615 256-256 256s-256-114.615-256-256zM256 718.222c0 62.838 57.308 113.778 128 113.778s128-50.94 128-113.778v-142.222h-256v142.222zM0 448.025c0 70.679 57.725 127.975 128.546 127.975h510.908c70.994 0 128.546-56.796 128.546-127.975v-384.049c0-70.679-57.725-127.975-128.546-127.975h-510.908c-70.994 0-128.546 56.796-128.546 127.975v384.049z" />
<glyph unicode="&#xe905;" glyph-name="close" d="M512 959.554c-282.524 0-511.554-229.031-511.554-511.554s229.031-511.554 511.554-511.554c282.524 0 511.554 229.031 511.554 511.554-0.38 282.37-229.183 511.174-511.517 511.554zM512 24.156c-233.986 0.127-423.62 189.839-423.62 423.843 0 234.082 189.761 423.843 423.843 423.843s423.843-189.761 423.843-423.843c-0.475-233.969-190.079-423.495-424.033-423.843zM709.824 645.934c-7.903 7.94-18.841 12.854-30.927 12.854s-23.024-4.914-30.926-12.853l-135.97-135.97-135.969 135.969c-7.81 7.325-18.346 11.825-29.933 11.825-24.19 0-43.8-19.61-43.8-43.8 0-11.615 4.521-22.174 11.9-30.013l135.948-135.946-135.969-135.969c-8.004-7.905-12.962-18.879-12.962-31.011s4.958-23.106 12.958-31.006c7.908-7.945 18.846-12.859 30.932-12.859s23.024 4.914 30.926 12.853l135.97 135.97 135.969-135.969c7.903-7.94 18.841-12.854 30.927-12.854s23.024 4.914 30.926 12.853c8.006 7.907 12.964 18.881 12.964 31.013s-4.958 23.106-12.958 31.006l-135.973 135.973 135.969 135.969c7.988 7.902 12.934 18.865 12.934 30.983s-4.946 23.081-12.93 30.979z" />
<glyph unicode="&#xe906;" glyph-name="user" horiz-adv-x="896" d="M448 960c141.385 0 256-114.615 256-256s-114.615-256-256-256c-141.385 0-256 114.615-256 256s114.615 256 256 256zM0-64c0 247.424 200.576 448 448 448s448-200.576 448-448z" />
<glyph unicode="&#xe907;" glyph-name="facebook" d="M928 960h-832c-52.8 0-96-43.2-96-96v-832c0-52.8 43.2-96 96-96h416v448h-128v128h128v64c0 105.792 86.208 192 192 192h128v-128h-128c-35.2 0-64-28.8-64-64v-64h192l-32-128h-160v-448h288c52.8 0 96 43.2 96 96v832c0 52.8-43.2 96-96 96z" />
<glyph unicode="&#xe908;" glyph-name="instagram" d="M512 867.808c136.8 0 152.992-0.608 206.784-3.008 50.016-2.208 76.992-10.592 95.008-17.6 23.808-9.216 40.992-20.416 58.784-38.208 18.016-18.016 28.992-35.008 38.4-58.816 7.008-18.016 15.392-45.184 17.6-95.008 2.4-54.016 3.008-70.208 3.008-206.816s-0.608-152.992-3.008-206.816c-2.208-50.016-10.592-76.992-17.6-95.008-9.216-23.808-20.384-40.992-38.208-58.784-18.016-18.016-35.008-28.992-58.784-38.4-18.016-7.008-45.216-15.392-95.008-17.6-54.016-2.4-70.208-3.008-206.816-3.008s-152.992 0.608-206.816 3.008c-50.016 2.208-76.992 10.592-95.008 17.6-23.808 9.216-40.992 20.384-58.816 38.208-18.016 18.016-28.992 35.008-38.4 58.784-7.008 18.016-15.392 45.216-17.6 95.008-2.4 54.016-3.008 70.208-3.008 206.816s0.608 152.992 3.008 206.816c2.208 50.016 10.592 76.992 17.6 95.008 9.216 23.808 20.416 40.992 38.208 58.816 18.016 18.016 35.008 28.992 58.816 38.4 18.016 7.008 45.184 15.392 95.008 17.6 53.792 2.4 70.016 3.008 206.816 3.008zM512 960c-139.008 0-156.384-0.608-211.008-3.008-54.4-2.4-91.808-11.2-124.192-23.808-33.792-13.184-62.4-30.592-90.784-59.2-28.608-28.416-46.016-56.992-59.2-90.592-12.608-32.608-21.408-69.792-23.808-124.192-2.4-54.816-3.008-72.192-3.008-211.2s0.608-156.384 3.008-211.008c2.4-54.4 11.2-91.808 23.808-124.192 13.216-33.792 30.592-62.4 59.2-90.784 28.384-28.384 56.992-46.016 90.592-59.008 32.608-12.608 69.792-21.408 124.192-23.808 54.592-2.4 72-3.008 211.008-3.008s156.416 0.608 211.008 3.008c54.4 2.4 91.808 11.2 124.192 23.808 33.6 12.992 62.208 30.592 90.592 59.008s46.016 56.992 59.008 90.592c12.608 32.608 21.408 69.792 23.808 124.192 2.4 54.592 3.008 72 3.008 211.008s-0.608 156.384-3.008 211.008c-2.4 54.4-11.2 91.808-23.808 124.192-12.608 34.016-30.016 62.592-58.592 91.008-28.384 28.384-56.992 46.016-90.592 59.008-32.608 12.608-69.792 21.408-124.192 23.808-54.784 2.592-72.192 3.2-211.2 3.2v0zM512 711.008c-145.184 0-263.008-117.792-263.008-263.008s117.792-263.008 263.008-263.008 263.008 117.792 263.008 263.008c0 145.184-117.792 263.008-263.008 263.008zM512 277.408c-94.208 0-170.592 76.384-170.592 170.592s76.384 170.592 170.592 170.592c94.208 0 170.592-76.384 170.592-170.592s-76.384-170.592-170.592-170.592zM846.784 721.408c0-33.92-27.488-61.408-61.408-61.408s-61.408 27.488-61.408 61.408c0 33.92 27.488 61.408 61.408 61.408s61.408-27.488 61.408-61.408z" />
<glyph unicode="&#xe909;" glyph-name="pinterest" d="M512.016 891.728c-244.992 0-443.616-198.592-443.616-443.616 0-188 116.992-348.384 282.016-412.992-3.808 35.008-7.392 88.992 1.6 127.2 8 34.592 52 220.384 52 220.384s-13.184 26.592-13.184 65.792c0 61.6 35.808 107.808 80.192 107.808 37.792 0 56.192-28.384 56.192-62.4 0-38.016-24.192-95.008-36.8-147.616-10.592-44.192 22.016-80.192 65.6-80.192 78.784 0 139.392 83.2 139.392 203.2 0 106.208-76.384 180.416-185.184 180.416-126.208 0-200.192-94.592-200.192-192.608 0-38.208 14.592-79.008 32.992-101.216 3.616-4.384 4.192-8.192 3.008-12.8-3.392-14.016-10.816-44.192-12.384-50.4-2.016-8.192-6.4-9.792-14.816-6.016-55.392 25.792-90.016 106.784-90.016 171.808 0 140 101.6 268.384 292.992 268.384 153.792 0 273.408-109.6 273.408-256.192 0-152.8-96.384-276-230.208-276-44.992 0-87.2 23.392-101.6 51.008 0 0-22.208-84.608-27.616-105.408-10.016-38.592-36.992-86.784-55.2-116.192 41.6-12.8 85.6-19.808 131.392-19.808 244.992 0 443.616 198.592 443.616 443.616 0 245.184-198.592 443.808-443.616 443.808z" />
<glyph unicode="&#xe90a;" glyph-name="twitter" d="M1024 733.6c-37.6-16.8-78.208-28-120.608-32.992 43.392 26.016 76.608 67.2 92.384 116.192-40.608-24-85.6-41.6-133.408-51.008-38.4 40.8-92.992 66.208-153.408 66.208-116 0-210.016-94.016-210.016-210.016 0-16.384 1.792-32.384 5.408-47.808-174.592 8.8-329.408 92.416-432.992 219.584-18.016-31.008-28.384-67.2-28.384-105.6 0-72.8 36.992-137.184 93.408-174.816-34.4 0.992-66.784 10.592-95.2 26.208 0-0.8 0-1.792 0-2.592 0-101.792 72.416-186.816 168.608-205.984-17.6-4.8-36.192-7.392-55.392-7.392-13.6 0-26.592 1.408-39.584 3.808 26.816-83.392 104.416-144.192 196.192-146.016-72-56.384-162.4-90.016-260.992-90.016-16.992 0-33.6 0.992-50.208 3.008 93.216-59.808 203.584-94.4 322.208-94.4 386.4 0 597.792 320.192 597.792 597.792 0 9.184-0.192 18.208-0.608 27.2 40.992 29.408 76.608 66.4 104.8 108.608z" />
<glyph unicode="&#xe90b;" glyph-name="arrow-down" horiz-adv-x="731" d="M365.5 341.599l-314.959 314.959-52.14-52.14 364.976-364.976 2.123 2.123 2.123-2.123 364.976 364.976-52.14 52.14-314.959-314.959z" />
<glyph unicode="&#xe90c;" glyph-name="arrow-left" horiz-adv-x="459" d="M112.418 448l346.583-346.583-57.377-57.377-401.624 401.624 2.335 2.335-2.335 2.335 401.624 401.624 57.377-57.377-346.583-346.583z" />
<glyph unicode="&#xe90d;" glyph-name="arrow-right" horiz-adv-x="459" d="M346.582 448l-346.583-346.583 57.377-57.377 401.624 401.624-2.335 2.335 2.335 2.335-401.624 401.624-57.377-57.377 346.583-346.583z" />
<glyph unicode="&#xe90e;" glyph-name="arrow-up" horiz-adv-x="731" d="M365.5 554.401l-314.959-314.959-52.14 52.14 364.976 364.976 2.123-2.123 2.123 2.123 364.976-364.976-52.14-52.14-314.959 314.959z" />
<glyph unicode="&#xe90f;" glyph-name="arrow-down-bl" horiz-adv-x="845" d="M422.499 385.225l-317.112 328.005-105.388-110.393 424.935-420.066 420.066 420.066-103.607 110.393z" />
<glyph unicode="&#xe910;" glyph-name="arrow-up-bl" horiz-adv-x="845" d="M422.499 510.775l-317.112-328.005-105.388 110.393 424.935 420.066 420.066-420.066-103.607-110.393z" />
<glyph unicode="&#xe911;" glyph-name="arrow-left-bl" horiz-adv-x="541" d="M206.479 448l334.523-323.415-112.588-107.482-428.414 433.381 428.414 428.414 112.588-105.665z" />
<glyph unicode="&#xe912;" glyph-name="arrow-right-bl" horiz-adv-x="541" d="M334.522 448l-334.523-323.415 112.588-107.482 428.414 433.381-428.414 428.414-112.588-105.665z" />
<glyph unicode="&#xe913;" glyph-name="about-payment" horiz-adv-x="1402" d="M1402.003 873.029c0 0.060 0 0.13 0 0.2 0 47.82-38.766 86.586-86.586 86.586-0.008 0-0.016 0-0.024 0h-1228.509c-0.013 0-0.029 0-0.045 0-47.82 0-86.586-38.766-86.586-86.586 0-0.070 0-0.141 0-0.211v-850.046c0-0.060 0-0.13 0-0.2 0-47.82 38.766-86.586 86.586-86.586 0.016 0 0.031 0 0.047 0h1231.378c0.196-0.002 0.428-0.003 0.66-0.003 46.025 0 83.337 37.311 83.337 83.337 0 2.311-0.094 4.6-0.279 6.865l0.020 846.644zM1357.675 581.517h-1312.915v89.011h1312.915v-89.011zM44.76 870.804c5.593 21.959 22.547 38.913 44.083 44.414l1224.327 0.092c21.966-5.579 38.927-22.54 44.415-44.084l0.091-156.191h-1312.915v155.77zM1357.675 25.196c-5.593-21.959-22.547-38.913-44.083-44.414l-1224.327-0.092c-21.966 5.579-38.927 22.54-44.415 44.084l-0.091 512.236h1312.915v-511.814z" />
<glyph unicode="&#xe914;" glyph-name="about-products" horiz-adv-x="1017" d="M801.797 757.235c17.065 21.017 27.399 48.099 27.399 77.594 0 2.349-0.066 4.683-0.195 7.001 0.017-0.024 0.019 0.328 0.019 0.681 0 64.5-51.973 116.862-116.325 117.489-48.454 0-160.004-72.346-204.625-137.419-46.086 65.034-157.208 135.308-203.705 135.308-64.435-0.695-116.403-53.091-116.403-117.625 0-0.298 0.001-0.595 0.003-0.893-0.037-1.096-0.058-2.438-0.058-3.785 0-29.725 10.285-57.048 27.492-78.605l-215.281 0.253v-273.744h58.66v-547.489h899.446v547.489h58.66v273.744h-215.085zM712.635 916.007c40.174-0.89 72.401-33.667 72.401-73.972 0-0.996-0.020-1.988-0.059-2.974-0.277-38.378-25.771-70.868-60.782-81.663l-176.59-0.162c-7.578 2.169-13.314 8.304-14.876 15.958-0.023 37.599 131.512 142.815 179.905 142.815zM304.363 916.007c46.086 0 179.889-105.216 179.889-142.739-3.15-6.887-8.292-12.407-14.684-15.945l-176.155-0.089c-35.591 10.957-61.048 43.463-61.241 81.944-0.013 0.534-0.020 1.137-0.020 1.742 0 40.469 31.991 73.466 72.064 75.081zM371.627-24.892h-273.744v508.383h273.744v-508.383zM371.627 522.596h-332.404v195.532h332.404v-195.532zM606.265-24.892h-195.532v743.021h195.532v-743.021zM919.116-24.892h-273.744v508.383h273.744v-508.383zM977.776 522.596h-332.404v195.532h332.404v-195.532z" />
<glyph unicode="&#xe915;" glyph-name="coupon-code" horiz-adv-x="1023" d="M1023.067 758.857l-201.6 201.326h-254.007l-100.114-99.84c-248.905 20.663-449.609-119.406-452.407-121.417-4.624-3.36-7.596-8.751-7.596-14.836 0-3.967 1.263-7.64 3.41-10.636 3.283-4.509 8.606-7.442 14.615-7.442 0.043 0 0.086 0 0.129 0 3.926 0.008 7.571 1.239 10.568 3.331 2.463 1.789 176.104 123.023 396.74 116.623l-433.079-432.457 456.101-457.691 182.107 181.943c35.369-18.446 77.242-29.267 121.644-29.267 0.814 0 1.627 0.004 2.439 0.011 2.232-0.085 5-0.134 7.78-0.134 60.503 0 115.679 22.811 157.396 60.301 54.148 50.7 88.025 122.904 88.025 203.019 0 42.448-9.51 82.674-26.515 118.665l34.255 31.77v256.731zM806.473 923.794l180.315-180.114v-226.56l-354.377-353.463c-74.075 53.029-96.622 152.869-63.36 283.611 0.425 1.464 0.67 3.145 0.67 4.883 0 10.018-8.121 18.139-18.139 18.139-8.572 0-15.756-5.946-17.651-13.94-46.982-184.626 16.122-275.689 72.497-318.66l-41.582-41.509-404.754 405.943 320.677 320.183c89.001-10.488 169.289-40.63 238.761-85.964-2.857-2.359-3.301-6.587-3.35-10.91-0.003-0.289-0.005-0.583-0.005-0.877 0-39.85 32.305-72.155 72.155-72.155s72.155 32.305 72.155 72.155c0 39.85-32.305 72.155-72.155 72.155-22.228 0-42.109-10.051-55.345-25.857-62.977 40.34-136.98 69.744-216.385 83.323l65.838 69.615h223.963zM758.254 709.669c3.053-2.434 6.968-3.906 11.226-3.906 9.988 0 18.085 8.097 18.085 18.085 0 6.042-2.963 11.392-7.516 14.676-5.649 4.242-11.281 8.082-16.876 11.922 6.258 6.2 14.867 10.037 24.371 10.057 0.026 0 0.051 0 0.077 0 19.44 0 35.2-15.76 35.2-35.2s-15.76-35.2-35.2-35.2c-14.522 0-26.99 8.794-32.37 21.348 0.955-0.502 1.979-1.051 3.003-1.782zM51.109 393.326l83.291 83.2 404.882-406.126-83.291-83.2zM901.394 174.080c-46.72-46.629-151.771-68.023-236.343-29.44l297.015 296.594c18.048-44.983 47.305-159.086-60.581-267.154z" />
<glyph unicode="&#xe916;" glyph-name="exchange-return" horiz-adv-x="982" d="M979.341 693.133l-206.89 261.851c-2.344 2.899-5.882 4.752-9.855 4.806h-543.022c-0.043 0.001-0.095 0.001-0.146 0.001-3.949 0-7.461-1.873-9.696-4.779l-206.911-261.88c-1.605-2.21-2.612-4.947-2.737-7.912l-0.001-736.474c0-6.925 5.614-12.539 12.539-12.539h956.541c0.044-0.001 0.095-0.001 0.147-0.001 6.95 0 12.593 5.599 12.663 12.533v736.451c-0.053 2.987-1.032 5.736-2.661 7.982zM501.551 918.204h250.776l167.184-208.98h-417.959v208.98zM229.878 918.204h229.878v-208.98h-397.061zM940.408-22.204h-898.612v689.633h898.612v-689.633zM794.122 458.449h-606.041c-11.542 0-20.898-9.356-20.898-20.898s9.356-20.898 20.898-20.898h606.041c11.542 0 20.898 9.356 20.898 20.898s-9.356 20.898-20.898 20.898zM731.429 312.163h-459.755c-11.542 0-20.898-9.356-20.898-20.898s9.356-20.898 20.898-20.898h459.755c11.542 0 20.898 9.356 20.898 20.898s-9.356 20.898-20.898 20.898zM731.429 165.878h-459.755c-11.542 0-20.898-9.356-20.898-20.898s9.356-20.898 20.898-20.898h459.755c11.542 0 20.898 9.356 20.898 20.898s-9.356 20.898-20.898 20.898z" />
<glyph unicode="&#xe917;" glyph-name="fail-delivery" horiz-adv-x="1022" d="M613.342 584.533h-425.95c-9.426 0-17.067-7.641-17.067-17.067s7.641-17.067 17.067-17.067h425.95c9.426 0 17.067 7.641 17.067 17.067s-7.641 17.067-17.067 17.067zM187.392 686.933h170.377c9.426 0 17.067 7.641 17.067 17.067s-7.641 17.067-17.067 17.067h-170.377c-9.426 0-17.067-7.641-17.067-17.067s7.641-17.067 17.067-17.067zM630.374 430.933c0 9.426-7.641 17.067-17.067 17.067h-425.916c-9.426 0-17.067-7.641-17.067-17.067s7.641-17.067 17.067-17.067h425.95c9.411 0.019 17.033 7.653 17.033 17.067 0 0 0 0 0 0zM494.080 294.4c0 9.426-7.641 17.067-17.067 17.067h-289.621c-9.426 0-17.067-7.641-17.067-17.067s7.641-17.067 17.067-17.067h289.638c9.418 0.010 17.050 7.647 17.050 17.067zM187.392 174.933c-9.426 0-17.067-7.641-17.067-17.067s7.641-17.067 17.067-17.067h238.524c9.426 0 17.067 7.641 17.067 17.067s-7.641 17.067-17.067 17.067h-238.524zM34.133 925.867h494.097v-238.933h238.541v-290.133h34.133v314.197l-248.661 249.003h-552.243v-1024h511.147v34.133h-477.013v955.733zM562.313 901.803l180.275-180.736h-180.361v180.736zM1017.105-6.485l-201.796 346.453c-6.727 11.408-18.953 18.942-32.939 18.942s-26.212-7.534-32.842-18.764l-201.927-346.631c-3.297-5.531-5.246-12.198-5.246-19.319 0-21.085 17.085-38.18 38.166-38.195h403.662c21.039 0.098 38.057 17.176 38.057 38.229 0 7.107-1.94 13.762-5.318 19.463zM987.682-27.819c-0.612-1.224-1.856-2.050-3.293-2.050-0.042 0-0.085 0.001-0.127 0.002h-403.808c-2.208 0.058-3.975 1.861-3.975 4.078 0 0.762 0.209 1.475 0.572 2.085l201.803 346.435c0.648 1.227 1.916 2.048 3.376 2.048 0.013 0 0.026 0 0.040 0 0.030 0.001 0.068 0.002 0.106 0.002 1.469 0 2.746-0.821 3.397-2.029l201.823-346.474c0.362-0.583 0.577-1.29 0.577-2.048s-0.215-1.465-0.586-2.065zM783.718 243.2c-9.426 0-17.067-7.641-17.067-17.067v-136.533c0-9.426 7.641-17.067 17.067-17.067s17.067 7.641 17.067 17.067v136.533c0 9.426-7.641 17.067-17.067 17.067zM771.618 33.451c-3.118-3.093-5.048-7.38-5.048-12.118 0-9.426 7.641-17.067 17.067-17.067 0.029 0 0.058 0 0.087 0 4.704 0.035 8.966 1.916 12.1 4.954 3.099 3.095 5.020 7.38 5.020 12.113 0 9.458-7.667 17.124-17.124 17.124-4.725 0-9.002-1.913-12.1-5.007z" />
<glyph unicode="&#xe918;" glyph-name="order-status" horiz-adv-x="786" d="M0 960v-1024h539.538l246.747 241.737v782.263h-786.286zM36.571 923.429h713.143v-713.143h-201.143c-0.955 0.097-2.065 0.152-3.187 0.152-18.521 0-33.536-15.015-33.536-33.536 0-1.122 0.055-2.232 0.163-3.326l-0.011-201.004h-475.429v950.857zM548.571 9.143v164.571h164.571zM164.718 776.96h456.777v-36.206h-456.777v36.206zM164.718 594.469h456.777v-36.754h-456.777v36.754zM164.718 411.611h456.777v-36.937h-456.777v36.937z" />
<glyph unicode="&#xe919;" glyph-name="shipping-delivery" horiz-adv-x="1265" d="M1245.806 603.768l-183.055 204.8c-15.075 16.263-35.407 27.464-58.282 30.893l-201.332 0.068v40.157c-0.621 44.501-36.841 80.336-81.431 80.336-0.673 0-1.345-0.008-2.014-0.024l-637.371 0.002c-0.197 0.002-0.43 0.003-0.663 0.003-44.966 0-81.418-36.452-81.418-81.418 0-0.636 0.007-1.271 0.022-1.904l-0.002-738.17c2.761-43.477 36.795-78.197 79.717-82.016l20.414-0.024c7.529-50.317 77.382-120.471 152.295-120.471s138.822 47.666 148.882 120.471h461.804c10.575-68.665 69.244-120.63 140.050-120.63 2.365 0 4.716 0.058 7.052 0.173 74.584-0.013 144.035 47.653 154.074 120.458h100.392l-0.201 498.226c0.017 0.572 0.027 1.245 0.027 1.921 0 18.311-7.226 34.934-18.983 47.174zM1212.135 576.020c6.51-3.692 11.18-9.984 12.623-17.428l0.026-60.396h-321.255v200.784h200.784zM40.157 518.275h301.176c11.089 0 20.078 8.989 20.078 20.078s-8.989 20.078-20.078 20.078h-301.176v60.235h220.863c11.089 0 20.078 8.989 20.078 20.078s-8.989 20.078-20.078 20.078h-220.863v220.863c-0.016 0.415-0.025 0.901-0.025 1.39 0 21.424 17.368 38.792 38.792 38.792 0.489 0 0.976-0.009 1.46-0.027l642.44 0.002c22.178 0 40.157-17.979 40.157-40.157v-522.039h-722.824v160.627zM252.687-21.414c-0.442-0.007-0.963-0.010-1.486-0.010-58.927 0-106.697 47.77-106.697 106.697s47.77 106.697 106.697 106.697c58.927 0 106.697-47.77 106.697-106.697 0-0.003 0-0.007 0-0.010 0.009-0.519 0.015-1.132 0.015-1.747 0-57.951-46.979-104.93-104.93-104.93-0.104 0-0.208 0-0.312 0zM762.98 96.627h-361.412c-9.417 68.267-66.6 131.032-135.068 137.336l-1.506 0.12c-1.727 0.141-3.453 0.281-5.2 0.361q-3.514 0.181-7.108 0.181c-2.389 0-4.759 0-7.128-0.181-1.727 0-3.453-0.221-5.18-0.361l-1.506-0.12c-68.511-6.635-122.895-59.433-131.913-126.603l-33.132-0.755c-0.25-0.007-0.544-0.011-0.839-0.011-17.225 0-31.364 13.218-32.824 30.065l-0.009 180.829h722.824v-220.863zM1010.146-21.414c-0.442-0.007-0.963-0.010-1.486-0.010-58.927 0-106.697 47.77-106.697 106.697s47.77 106.697 106.697 106.697c58.927 0 106.697-47.77 106.697-106.697 0-0.003 0-0.007 0-0.010 0.009-0.525 0.015-1.145 0.015-1.767 0-57.94-46.97-104.91-104.91-104.91-0.111 0-0.222 0-0.333 0.001zM1164.549 96.627c-12.234 71.447-68.64 126.765-139.644 137.227l-2.411 0.23c-1.727 0.141-3.433 0.281-5.18 0.361-2.369 0.12-4.739 0.181-7.128 0.181s-4.759 0-7.108-0.181c-1.747 0-3.474-0.221-5.18-0.361l-1.526-0.12c-68.467-6.305-123.543-68.969-132.959-137.336h-60.235v702.745h200.784c10.485-4.939 19.483-11.137 27.313-18.556l32.882-41.679h-160.627c-21.228-2.215-37.942-18.929-40.14-39.963l-0.016-200.978c2.222-21.224 18.933-37.935 39.962-40.14l321.449-0.017v-120.471h-100.392c-12.629 0-30.118-4.779-30.118-17.589 3.315-13.075 14.979-22.595 28.866-22.595 0.44 0 0.878 0.010 1.314 0.029l100.33-0.002v-200.784h-60.235zM252.687 127.95c-0.155 0.002-0.338 0.003-0.522 0.003-23.575 0-42.687-19.112-42.687-42.687s19.112-42.687 42.687-42.687c23.574 0 42.685 19.11 42.687 42.683 0 0.054 0 0.118 0 0.182 0 23.356-18.837 42.312-42.147 42.505zM1010.146 127.95c-0.155 0.002-0.338 0.003-0.522 0.003-23.575 0-42.687-19.112-42.687-42.687s19.112-42.687 42.687-42.687c23.574 0 42.685 19.11 42.687 42.683 0 0.048 0 0.105 0 0.162 0 23.36-18.834 42.32-42.146 42.524z" />
<glyph unicode="&#xe91a;" glyph-name="address" horiz-adv-x="958" d="M482.040 536.46c62.776 0.263 113.565 51.213 113.565 114.026 0 62.976-51.052 114.027-114.027 114.027s-114.027-51.051-114.027-114.027c0.207-63.020 51.342-114.027 114.39-114.027 0.035 0 0.070 0 0.105 0zM482.040 731.945c44.845-0.188 81.127-36.585 81.127-81.457 0-44.988-36.47-81.458-81.458-81.458s-81.457 36.469-81.458 81.457c0.056 45.073 36.608 81.59 81.689 81.59 0.035 0 0.070 0 0.105 0zM479.133 68.129l251.045 360.91c39.226 56.274 62.674 126.088 62.674 201.379 0 91.806-34.862 175.47-92.071 238.475-56.593 56.251-134.973 91.203-221.516 91.203s-164.923-34.952-221.793-91.511c-56.947-62.687-91.821-146.35-91.821-238.158 0-75.072 23.318-144.698 63.106-202.030zM280.477 845.576c50.931 50.643 121.138 81.947 198.656 81.947s147.725-31.304 198.669-81.96c51.352-56.633 82.793-132.169 82.793-215.048 0-68.267-21.332-131.552-57.694-183.552l-223.702-321.689-224.619 323.221c-35.55 50.875-56.804 114.025-56.804 182.139 0 82.792 31.401 158.249 82.942 215.113zM672.405 233.29c-0.434 0.041-0.937 0.064-1.447 0.064-8.668 0-15.754-6.772-16.256-15.314-0.114-0.783-0.178-1.636-0.178-2.504 0-8.429 6.048-15.446 14.042-16.946 168.010-21.653 257.428-80.021 257.428-113.813 0-47.467-170.050-113.664-447.026-113.664s-447.026 66.065-447.026 113.664c0 33.792 89.418 92.16 257.288 113.796 8.116 1.488 14.185 8.506 14.185 16.942 0 0.875-0.065 1.735-0.191 2.576-0.491 8.493-7.578 15.267-16.247 15.267-0.521 0-1.036-0.024-1.545-0.072-168.036-21.664-285.433-82.576-285.433-148.64 0-73.86 164.534-148.645 478.968-148.645s478.968 74.785 478.968 148.645c0 65.767-117.397 126.844-285.531 148.645z" />
<glyph unicode="&#xe91b;" glyph-name="credit-slips" d="M0 960v-1024h1024v1024h-1024zM989.867-29.867h-955.733v955.733h955.733v-955.733zM273.067 185.173l241.357 241.357 241.357-241.357 24.132 24.132-241.357 241.357 241.357 241.357-24.132 24.132-241.357-241.357-241.357 241.289-24.132-24.132 241.357-241.357-241.118-241.527z" />
<glyph unicode="&#xe91c;" glyph-name="order-history" horiz-adv-x="819" d="M564.975 960h-564.975v-1024h819.2v775.066zM580.267 891.733l179.439-170.667h-179.439v170.667zM34.85-29.867v955.733h511.283v-238.933h238.217v-716.8h-749.5zM631.091 584.533h-272.247c-9.426 0-17.067-7.641-17.067-17.067s7.641-17.067 17.067-17.067h272.247c9.426 0 17.067 7.641 17.067 17.067s-7.641 17.067-17.067 17.067zM276.48 649.079l-81.579-58.743-25.941 23.347c-3.572 3.109-8.272 5.005-13.414 5.005s-9.842-1.895-13.439-5.026c-3.387-2.908-5.536-7.225-5.536-12.045s2.148-9.137 5.539-12.048l37.977-34.151c3.573-3.111 8.274-5.008 13.419-5.008 4.424 0 8.52 1.403 11.869 3.788l94.794 68.224c4.281 2.903 7.057 7.745 7.057 13.235 0 4.104-1.551 7.847-4.1 10.672-3.732 3.965-9.034 6.444-14.914 6.444-4.392 0-8.461-1.383-11.796-3.736zM627.473 379.733h-278.869c-9.426 0-17.067-7.641-17.067-17.067s7.641-17.067 17.067-17.067h278.869c9.426 0 17.067 7.641 17.067 17.067s-7.641 17.067-17.067 17.067zM276.48 444.279l-81.579-58.743-25.941 23.347c-3.572 3.109-8.272 5.005-13.414 5.005s-9.842-1.895-13.439-5.026c-3.387-2.908-5.536-7.225-5.536-12.045s2.148-9.137 5.539-12.048l37.977-34.151c3.573-3.111 8.274-5.008 13.419-5.008 4.424 0 8.52 1.403 11.869 3.788l94.794 68.224c4.281 2.903 7.057 7.745 7.057 13.235 0 4.104-1.551 7.847-4.1 10.672-3.732 3.965-9.034 6.444-14.914 6.444-4.392 0-8.461-1.383-11.796-3.736zM631.091 174.933h-272.247c-9.426 0-17.067-7.641-17.067-17.067s7.641-17.067 17.067-17.067h272.247c9.426 0 17.067 7.641 17.067 17.067s-7.641 17.067-17.067 17.067zM276.48 239.479l-81.579-58.743-25.941 23.347c-3.572 3.109-8.272 5.005-13.414 5.005s-9.842-1.895-13.439-5.026c-3.387-2.908-5.536-7.225-5.536-12.045s2.148-9.137 5.539-12.048l37.977-34.151c3.573-3.111 8.274-5.008 13.419-5.008 4.424 0 8.52 1.403 11.869 3.788l94.794 68.224c4.281 2.903 7.057 7.745 7.057 13.235 0 4.104-1.551 7.847-4.1 10.672-3.732 3.965-9.034 6.444-14.914 6.444-4.392 0-8.461-1.383-11.796-3.736z" />
<glyph unicode="&#xe91d;" glyph-name="personal-info" horiz-adv-x="706" d="M353.103 430.345c-39.003 0-70.621-31.618-70.621-70.621v-105.931c0-39.003 31.618-70.621 70.621-70.621s70.621 31.618 70.621 70.621v105.931c0 39.003-31.618 70.621-70.621 70.621zM388.414 253.793c0-19.501-15.809-35.31-35.31-35.31s-35.31 15.809-35.31 35.31v105.931c0 19.501 15.809 35.31 35.31 35.31s35.31-15.809 35.31-35.31v-105.931zM564.966 571.586v211.862c0 102.682-104.801 176.552-211.862 176.552s-211.862-86.334-211.862-192.477c0.454-10.287 8.904-18.455 19.262-18.455s18.808 8.168 19.26 18.414c0.001 85.386 85.7 157.207 173.34 157.207s176.552-58.65 176.552-141.241v-176.552c-3.319 1.695-24.364 0.388-27.719 1.942-7.062 3.249-14.124 6.285-21.186 9.11-4.626 1.801-9.251 3.531-13.912 5.085s-9.145 3.143-13.806 4.52c-7.698 2.295-15.501 4.273-23.375 6.038-3.531 0.742-6.815 1.483-10.275 2.154-9.216 1.766-18.503 3.213-27.86 4.273l-6.356 0.565c-10.664 0.989-21.469 1.624-32.062 1.624-195.014 0-353.103-158.090-353.103-353.103s158.090-353.103 353.103-353.103c195.014 0 353.103 158.090 353.103 353.103 0.336 5.461 0.527 11.844 0.527 18.272 0 109.809-55.818 206.58-140.627 263.49zM353.103-28.69c-175.512 0-317.793 142.281-317.793 317.793s142.281 317.793 317.793 317.793c9.534 0 18.926-0.6 28.248-1.412 3.037-0.282 6.038-0.6 9.039-0.953 6.674-0.777 13.241-1.836 19.738-3.037 4.52-0.812 9.039-1.73 13.524-2.754q9.216-2.048 18.22-4.696c4.908-1.412 9.746-3.037 14.548-4.732 3.178-1.095 6.285-2.26 9.393-3.531 120.756-46.793 204.822-162.024 204.822-296.889 0-175.378-142.158-317.554-317.53-317.581z" />
<glyph unicode="&#xe91e;" glyph-name="returns" d="M596.036 618.667l-145.271-105.813c-4.283-3.139-7.033-8.152-7.033-13.807 0-9.427 7.642-17.069 17.069-17.069 3.772 0 7.258 1.223 10.083 3.295l206.664 150.153-206.711 150.187c-2.777 2.038-6.263 3.262-10.035 3.262-9.427 0-17.069-7.642-17.069-17.069 0-5.655 2.75-10.668 6.986-13.774l145.319-105.847h-203.503c-122.471-0.155-221.711-99.396-221.867-221.852 0-9.441 7.641-17.082 17.067-17.082s17.067 7.641 17.067 17.067c0.116 103.635 84.098 187.617 187.722 187.733h203.514zM512 960c-282.77 0-512-229.23-512-512s229.23-512 512-512c282.77 0 512 229.23 512 512-0.33 282.637-229.363 511.67-511.968 512zM512-29.867c-263.918 0-477.867 213.948-477.867 477.867s213.948 477.867 477.867 477.867c263.918 0 477.867-213.948 477.867-477.867-0.311-263.794-214.074-477.556-477.837-477.867zM819.2 482.133c-9.426 0-17.067-7.641-17.067-17.067-0.136-103.628-84.106-187.597-187.72-187.733h-203.55l145.306 105.813c3.984 3.153 6.517 7.988 6.517 13.415 0 9.426-7.641 17.067-17.067 17.067-3.551 0-6.849-1.084-9.58-2.94l-206.652-150.148 206.711-150.187c2.749-2.097 6.222-3.374 9.992-3.413 9.362 0.096 16.906 7.7 16.906 17.066 0 5.565-2.663 10.508-6.785 13.623l-145.349 105.844h203.537c122.471 0.155 221.711 99.396 221.867 221.852-0.154 9.322-7.735 16.809-17.064 16.809-0.001 0-0.002 0-0.002 0z" />
<glyph unicode="&#xe91f;" glyph-name="sort" horiz-adv-x="773" d="M386.386 96l-265.61 275.246h531.362l-265.758-275.246zM386.386 800l265.758-275.246h-531.37l265.61 275.246z" />
<glyph unicode="&#xe920;" glyph-name="reload" horiz-adv-x="910" d="M560.356 788.423l-134.258-136.875c-3.524-3.659-8.466-5.931-13.938-5.931s-10.414 2.272-13.932 5.925l-2.281 1.997v100.75c-163.435-15.877-290.147-152.547-290.147-318.812 0-120.103 66.119-224.764 163.944-279.567 27.785-14.827 28.354-22.848 14.701-49.244s-36.978-60.928-62.578-46.933c-133.565 74.279-222.444 214.575-222.444 375.628 0 225.375 174.047 410.1 395.065 427.098l1.459 89.406 2.276 1.991c3.524 3.659 8.466 5.931 13.938 5.931s10.414-2.272 13.932-5.925l134.264-136.539c3.771-3.664 6.111-8.784 6.111-14.45s-2.34-10.786-6.106-14.445zM484.124-57.856l-134.258 136.818c-3.634 3.643-5.881 8.67-5.881 14.222s2.247 10.58 5.881 14.223l134.257 136.817c3.51 3.688 8.456 5.982 13.938 5.982s10.428-2.294 13.93-5.974l2.283-1.999v-100.693c163.45 15.828 290.191 152.495 290.191 318.764 0 120.112-66.14 224.775-163.986 279.558-27.787 14.884-28.355 22.962-14.702 49.301s36.978 60.928 62.578 46.876c133.59-74.258 222.491-214.557 222.491-375.621 0-225.381-174.078-410.103-395.116-427.049l-1.455-89.348-2.276-2.048c-3.517-3.608-8.425-5.846-13.856-5.846-5.514 0-10.489 2.307-14.012 6.009z" />
<glyph unicode="&#xe921;" glyph-name="menu" horiz-adv-x="1243" d="M145.665 840h951.996v-140.002h-951.996v140.002zM145.665 517.997h951.996v-140.002h-951.996v140.002zM145.665 196.002h951.996v-140.002h-951.996v140.002z" />
<glyph unicode="&#xe922;" glyph-name="plus" d="M0 486.073h1024v-66.486h-1024v66.486zM473.927-64v1024h66.486v-1024h-66.486z" />
<glyph unicode="&#xe923;" glyph-name="trash" horiz-adv-x="981" d="M847.36 684.629c-0.14 0.002-0.305 0.003-0.47 0.003-19.917 0-36.080-16.074-36.223-35.957v-602.68c-0.288-21.27-17.598-38.402-38.909-38.402-0.121 0-0.242 0.001-0.363 0.002h-561.901c-0.065 0-0.142-0.001-0.219-0.001-21.336 0-38.675 17.116-39.034 38.367v602.914c0 20.265-16.428 36.693-36.693 36.693s-36.693-16.428-36.693-36.693v-602.667c0.912-61.062 50.625-110.211 111.818-110.211 0.289 0 0.578 0.001 0.867 0.003h561.876c0.294-0.003 0.642-0.004 0.991-0.004 61.159 0 110.833 49.17 111.648 110.135l0.001 602.744c-0.311 19.814-16.446 35.757-36.305 35.757-0.136 0-0.273-0.001-0.409-0.002zM944.64 813.227h-222.72v38.4c-3.589 60.721-53.708 108.605-115.011 108.605-1.717 0-3.425-0.038-5.124-0.112l-222.478 0.008c-1.578 0.078-3.426 0.122-5.285 0.122-61.224 0-111.252-47.938-114.595-108.327l-0.013-38.696h-222.72c-0.945 0.095-2.042 0.149-3.151 0.149-18.404 0-33.323-14.919-33.323-33.323s14.919-33.323 33.323-33.323c1.11 0 2.207 0.054 3.288 0.16l907.81-0.011c0.945-0.095 2.042-0.149 3.151-0.149 18.404 0 33.323 14.919 33.323 33.323s-14.919 33.323-33.323 33.323c-1.11 0-2.207-0.054-3.288-0.16zM332.8 851.627c1.303 23.575 20.738 42.199 44.523 42.199 0.698 0 1.392-0.016 2.082-0.048l222.622 0.004c0.592 0.028 1.286 0.044 1.984 0.044 23.785 0 43.219-18.624 44.518-42.084l0.005-38.515h-315.733v38.4zM527.36 130.816v450.901c0 20.147-16.333 36.48-36.48 36.48s-36.48-16.333-36.48-36.48v-451.029c0.096-19.768 16.143-35.756 35.925-35.756 0.12 0 0.24 0.001 0.36 0.002 0.11-0.002 0.261-0.003 0.412-0.003 19.85 0 35.976 15.948 36.263 35.73zM365.227 130.816v450.901c0 20.265-16.428 36.693-36.693 36.693s-36.693-16.428-36.693-36.693v-451.029c0-20.265 16.428-36.693 36.693-36.693s36.693 16.428 36.693 36.693zM689.067 130.816v450.901c-0.096 19.768-16.143 35.756-35.925 35.756-0.12 0-0.24-0.001-0.36-0.002-0.060 0.001-0.152 0.001-0.244 0.001-19.884 0-36.048-15.927-36.43-35.72l-0.001-451.065c0.287-19.809 16.413-35.757 36.263-35.757 0.151 0 0.302 0.001 0.453 0.003 0.079-0.001 0.199-0.002 0.319-0.002 19.782 0 35.829 15.988 35.925 35.747z" />
<glyph unicode="&#xe924;" glyph-name="minus" d="M0 487.822h1024v-68.267h-1024v68.267z" />
<glyph unicode="&#xe925;" glyph-name="check" horiz-adv-x="1339" d="M426.142-64l-426.142 428.032 106.575 106.969 319.488-320.985 806.518 809.984 106.496-106.89z" />
<glyph unicode="&#xe926;" glyph-name="error" d="M1024 45.227l-406.187 406.187 406.187 402.773-105.813 105.813-402.773-406.187-406.187 406.187-105.813-105.813 406.187-402.773-406.187-406.187 105.813-105.813 406.187 406.187 406.187-402.773 102.4 102.4z" />
<glyph unicode="&#xe927;" glyph-name="security" horiz-adv-x="781" d="M390.737 278.232c-24.253 0-43.116 18.863-43.116 43.116s18.863 43.116 43.116 43.116c24.253 0 43.116-18.863 43.116-43.116s-18.863-43.116-43.116-43.116zM390.737 321.347v0 0zM390.737 148.884c-10.779 0-21.558 8.084-21.558 21.558 0 0 0 0 0 0v129.347c0 10.779 10.779 21.558 21.558 21.558s21.558-10.779 21.558-21.558v-129.347c0-10.779-10.779-21.558-21.558-21.558 0 0 0 0 0 0zM759.916-64h-738.358c-10.779 0-21.558 8.084-21.558 21.558 0 0 0 0 0 0v598.232c0 10.779 10.779 21.558 21.558 21.558 0 0 0 0 0 0h738.358c10.779 0 21.558-8.084 21.558-21.558 0 0 0 0 0 0v-598.232c0-10.779-10.779-21.558-21.558-21.558 0 0 0 0 0 0zM43.116-20.884h695.242v555.116h-695.242v-555.116zM630.568 534.232h-479.663c-10.779 0-21.558 8.084-21.558 21.558 0 0 0 0 0 0v148.211c2.695 142.821 123.958 258.695 266.779 256 140.126-2.695 253.305-115.874 256-256v-148.211c0-13.474-10.779-21.558-21.558-21.558 0 0 0 0 0 0zM172.463 577.347h433.853v126.653c-2.695 121.263-99.705 215.579-220.968 212.884-115.874 0-210.189-94.316-212.884-212.884v-126.653z" />
<glyph unicode="&#xe928;" glyph-name="airplane" horiz-adv-x="1025" d="M998.254 807.38l-233.949-234.087 125.052-550.327-85.076-84.904-231.405 443.768-233.949-233.743 20.624-148.152-63.798-63.936-105.219 190.432-190.294 105.184 63.832 63.592 148.22-20.624 233.949 234.087-444.077 231.337 85.076 84.904 550.396-124.777 233.949 233.743c16.202 16.223 38.596 26.259 63.334 26.259 49.433 0 89.507-40.074 89.507-89.507 0-24.695-10.001-47.055-26.174-63.249z" />
<glyph unicode="&#xe929;" glyph-name="question" d="M460.8 242.72h102.52v-102.040h-102.52v102.040zM512.060 960.6c-283.101 0-512.6-229.499-512.6-512.6s229.499-512.6 512.6-512.6c283.101 0 512.6 229.499 512.6 512.6 0 0.054 0 0.117 0 0.18 0 283.002-229.418 512.42-512.42 512.42-0.064 0-0.127 0-0.191 0zM512.060 28.436c-231.616 0.137-419.324 187.93-419.324 419.564 0 231.719 187.845 419.564 419.564 419.564s419.564-187.845 419.564-419.564c-0.068-231.733-187.941-419.564-419.684-419.564-0.042 0-0.084 0-0.127 0zM711.458 599.259c-22.319 90.901-103.108 157.278-199.4 157.278-113.241 0-205.040-91.8-205.040-205.040 0-0.301 0.001-0.603 0.002-0.904l102.52 0.047c4.63 52.954 48.76 94.185 102.52 94.185 56.824 0 102.889-46.065 102.889-102.889 0-3.064-0.134-6.096-0.396-9.092-10.259-48.627-53.129-84.904-104.472-84.904-1.246 0-2.487 0.021-3.723 0.064-25.015-0.005-45.438-20.429-45.438-45.623v0-108.042h102.52v58.223c89.11 23.748 153.684 103.725 153.684 198.783 0 17.003-2.066 33.523-5.96 49.323z" />
<glyph unicode="&#xe92a;" glyph-name="return" horiz-adv-x="976" d="M26.433-64.238c-14.491 0.107-26.197 11.879-26.197 26.385 0 0.101 0.001 0.201 0.002 0.302v716.308c0.018 1.696 0.19 3.339 0.504 4.933l-0.028 0.783 0.238 0.476c0 0.238 0.238 0.476 0.238 0.714 0.15 0.258 0.239 0.568 0.239 0.899 0 0.019 0 0.038-0.001 0.057 0.162 0.193 0.261 0.447 0.261 0.724 0 0.080-0.008 0.158-0.024 0.233l0.239 0.231v0.238c0.235 0.765 0.477 1.396 0.756 2.008 0.453 0.939 0.929 1.797 1.45 2.624 0.123 0.263 0.363 0.578 0.649 0.843l0.24 0.716 0.953 0.953 199.323 254.809c4.866 6.187 12.32 10.149 20.703 10.24h524.398c8.414-0.019 15.894-4.002 20.673-10.18l200.558-256.298c0.238-0.476 0.476-0.714 0.714-1.191l0.714-1.429c0-0.132 0.107-0.238 0.238-0.238l0.238-0.238v-0.476c0.288-0.313 0.468-0.73 0.476-1.189l0.238-0.24 0.238-0.714 0.238-0.476c0.051-0.617 0.221-1.183 0.488-1.691 0.251-0.692 0.498-1.57 0.682-2.471 0.183-1.212 0.275-2.467 0.275-3.744 0-0.318-0.006-0.635-0.017-0.95l0.001-716.278c0.001-0.085 0.002-0.186 0.002-0.286 0-14.506-11.706-26.278-26.187-26.385h-923.515zM923.505-11.133v663.457h-870.638v-663.457h870.638zM895.643 705.429l-158.125 201.942h-222.899v-201.942h381.023zM461.991 705.429v201.942h-222.899l-158.363-201.942h381.261zM462.705 192c-13.612 0-24.647 11.035-24.647 24.647s11.035 24.647 24.647 24.647h151.457c35.071 2.163 62.696 31.135 62.696 66.56s-27.625 64.397-62.507 66.551l-234.518 0.009 40.484-40.96c4.417-4.464 7.146-10.605 7.146-17.384s-2.729-12.921-7.148-17.386c-4.343-4.55-10.459-7.381-17.235-7.381-0.052 0-0.103 0-0.155 0-6.806 0.048-12.953 2.864-17.372 7.378l-82.401 82.877c-4.417 4.464-7.146 10.605-7.146 17.384s2.729 12.921 7.148 17.386l82.394 83.109c4.497 4.363 10.617 7.075 17.371 7.144 0.043 0 0.078 0 0.113 0 6.747 0 12.857-2.73 17.285-7.145 4.419-4.506 7.147-10.686 7.147-17.503s-2.728-12.997-7.152-17.507l-40.48-40.718h234.329c63.985 0 115.855-51.87 115.855-115.855s-51.87-115.855-115.855-115.855h-151.457z" />
<glyph unicode="&#xe92b;" glyph-name="c-minus" d="M512-64c282.77 0 512 229.23 512 512s-229.23 512-512 512c-282.77 0-512-229.23-512-512s229.23-512 512-512zM219.429 521.143h585.143v-146.286h-585.143v146.286z" />
<glyph unicode="&#xe92c;" glyph-name="c-pluse" d="M585.143 521.143h219.429v-146.286h-219.429v-219.429h-146.286v219.429h-219.429v146.286h219.429v219.429h146.286v-219.429zM512-64c282.77 0 512 229.23 512 512s-229.23 512-512 512c-282.77 0-512-229.23-512-512s229.23-512 512-512z" />
<glyph unicode="&#xe92d;" glyph-name="facebook-2" horiz-adv-x="533" d="M157.078-63.269v466.63h-156.932v181.772h156.932v134.137c0 155.689 95.050 240.365 233.863 240.365 66.484 0 123.689-4.895 140.42-7.16v-162.63l-96.292-0.073c-75.47 0-90.155-35.872-90.155-88.548v-116.164h180.091l-23.379-181.772h-156.712v-466.63l-187.836 0.073z" />
</font>
</defs>
</svg>
